<?xml version="1.0" encoding="UTF-8" standalone="no"?>
<svg width="281px" height="122px" viewBox="0 0 281 122" version="1.1" xmlns="http://www.w3.org/2000/svg" xmlns:xlink="http://www.w3.org/1999/xlink">
    <!-- Generator: Sketch 39.1 (31720) - http://www.bohemiancoding.com/sketch -->
    <title>ilustra-home</title>
    <desc>Created with Sketch.</desc>
    <defs></defs>
    <g id="01-home" stroke="none" stroke-width="1" fill="none" fill-rule="evenodd">
        <g id="01-home-mobile" transform="translate(-20.000000, -404.000000)">
            <g id="topo">
                <g id="ilustra-home" transform="translate(20.000000, 404.000000)">
                    <g id="icon-notebook" transform="translate(0.000000, 29.503268)">
                        <path d="M143.306418,87.8380065 L24.8374547,87.8380065 C22.6483612,87.8380065 20.8572847,86.0438889 20.8572847,83.8510784 L20.8572847,4.61327451 C20.8572847,2.42046405 22.6483612,0.626346405 24.8374547,0.626346405 L143.306418,0.626346405 C145.495511,0.626346405 147.286588,2.42046405 147.286588,4.61327451 L147.286588,83.8510784 C147.286588,86.0438889 145.495511,87.8380065 143.306418,87.8380065" id="Fill-12" fill="#F7F8F8"></path>
                        <path d="M143.306418,87.8380065 L143.306418,87.2399673 L24.8374547,87.2399673 C23.907687,87.2399673 23.064687,86.8600131 22.4485567,86.2440327 C21.8336204,85.6268562 21.4547082,84.7824248 21.4543102,83.8510784 L21.4543102,4.61327451 C21.4547082,3.68152941 21.8336204,2.83749673 22.4485567,2.22032026 C23.064687,1.60433987 23.907687,1.22438562 24.8374547,1.22438562 L143.306418,1.22438562 C144.236584,1.22438562 145.079186,1.60433987 145.695316,2.22032026 C146.310252,2.83749673 146.689562,3.68152941 146.689562,4.61327451 L146.689562,83.8510784 C146.689562,84.7824248 146.310252,85.6268562 145.695316,86.2440327 C145.079186,86.8600131 144.236584,87.2399673 143.306418,87.2399673 L143.306418,88.4360458 C145.827856,88.4336536 147.881225,86.3767974 147.883613,83.8510784 L147.883613,4.61327451 C147.881225,2.08755556 145.827856,0.0306993464 143.306418,0.0283071895 L24.8374547,0.0283071895 C22.316415,0.0306993464 20.2626473,2.08755556 20.2602592,4.61327451 L20.2602592,83.8510784 C20.2626473,86.3767974 22.316415,88.4336536 24.8374547,88.4360458 L143.306418,88.4360458 L143.306418,87.8380065" id="Fill-13" fill="#353535"></path>
                        <polygon id="Fill-14" fill="#55D49C" points="27.2442635 6.8985817 140.899211 6.8985817 140.899211 78.4806863 27.2442635 78.4806863"></polygon>
                        <polyline id="Fill-15" fill="#353535" points="140.899609 78.4806863 140.899609 77.8826471 27.841289 77.8826471 27.841289 7.49662092 140.302584 7.49662092 140.302584 78.4806863 140.899609 78.4806863 140.899609 77.8826471 140.899609 78.4806863 141.496635 78.4806863 141.496635 6.30054248 26.647238 6.30054248 26.647238 79.0787255 141.496635 79.0787255 141.496635 78.4806863 140.899609 78.4806863"></polyline>
                        <path d="M165.011479,91.0191765 L3.13279178,91.0191765 C1.74570255,91.0191765 0.621304533,89.8928693 0.621304533,88.5030261 C0.621304533,87.1135817 1.74570255,85.9872745 3.13279178,85.9872745 L165.011479,85.9872745 C166.398568,85.9872745 167.522966,87.1135817 167.522966,88.5030261 C167.522966,89.8928693 166.398568,91.0191765 165.011479,91.0191765" id="Fill-16" fill="#F7F8F8"></path>
                        <path d="M165.011479,91.0191765 L165.011479,90.4211373 L3.13279178,90.4211373 C2.60223513,90.4207386 2.12740085,90.2074379 1.77873796,89.8593791 C1.43166714,89.5105229 1.21833003,89.0348824 1.21793201,88.5030261 C1.21833003,87.9715686 1.43166714,87.4959281 1.77873796,87.1470719 C2.12740085,86.7990131 2.60223513,86.5857124 3.13279178,86.5853137 L165.011479,86.5853137 C165.542035,86.5857124 166.01687,86.7990131 166.365135,87.1470719 C166.712603,87.4959281 166.925542,87.9715686 166.925941,88.5030261 C166.925542,89.0348824 166.712603,89.5105229 166.365135,89.8593791 C166.01687,90.2074379 165.542035,90.4207386 165.011479,90.4211373 L165.011479,91.6172157 C166.728524,91.616817 168.119593,90.2233856 168.119992,88.5030261 C168.119593,86.7830654 166.728524,85.389634 165.011479,85.3892353 L3.13279178,85.3892353 C1.41574646,85.389634 0.0242790368,86.7830654 0.0242790368,88.5030261 C0.0242790368,90.2233856 1.41574646,91.616817 3.13279178,91.6172157 L165.011479,91.6172157 L165.011479,91.0191765" id="Fill-17" fill="#353535"></path>
                        <polygon id="Fill-18" fill="#F7F8F8" points="0.621304533 83.7466209 167.522966 83.7466209 167.522966 88.7785229 0.621304533 88.7785229"></polygon>
                        <polyline id="Fill-19" fill="#353535" points="167.522966 88.7781242 167.522966 88.180085 1.21793201 88.180085 1.21793201 84.3442614 166.925941 84.3442614 166.925941 88.7781242 167.522966 88.7781242 167.522966 88.180085 167.522966 88.7781242 168.119992 88.7781242 168.119992 83.1485817 0.0242790368 83.1485817 0.0242790368 89.3761634 168.119992 89.3761634 168.119992 88.7781242 167.522966 88.7781242"></polyline>
                        <path d="M47.2219306,12.9076797 L34.1060765,12.9076797 C33.7920411,12.9076797 33.4843739,13.0352614 33.2618824,13.2581307 C33.0393909,13.4806013 32.9120255,13.7887908 32.9120255,14.1037582 L32.9120255,43.1668693 C32.9120255,43.8271046 33.4465623,44.3629477 34.1060765,44.3629477 C34.7655907,44.3629477 35.3001275,43.8271046 35.3001275,43.1668693 L35.3001275,15.2998366 L47.2219306,15.2998366 C47.8814448,15.2998366 48.4159816,14.7643922 48.4159816,14.1037582 C48.4159816,13.4431242 47.8814448,12.9076797 47.2219306,12.9076797" id="Fill-20" fill="#CCF2E1"></path>
                        <path d="M34.1060765,46.1375294 C33.1412833,46.1375294 32.3591799,46.9209608 32.3591799,47.8873922 C32.3591799,48.8538235 33.1412833,49.6372549 34.1060765,49.6372549 C35.0708697,49.6372549 35.8529731,48.8538235 35.8529731,47.8873922 C35.8529731,46.9209608 35.0708697,46.1375294 34.1060765,46.1375294" id="Fill-21" fill="#CCF2E1"></path>
                        <polyline id="Fill-22" fill="#3BC08D" points="140.302584 7.49662092 110.641561 7.49662092 85.5079816 77.8826471 140.302584 77.8826471 140.302584 7.49662092"></polyline>
                        <polyline id="Fill-23" fill="#2B715A" points="140.501592 7.26418301 110.724746 7.26418301 110.641561 7.49662092 140.302584 7.49662092 140.302584 77.8826471 85.5079816 77.8826471 85.4502691 78.0441176 140.501592 78.0441176 140.501592 7.26418301"></polyline>
                    </g>
                    <g id="icon-celular" transform="translate(10.348442, 64.986928)">
                        <path d="M25.8711048,55.5355163 L4.15251133,55.5355163 C2.40123654,55.5355163 0.968375354,54.1002222 0.968375354,52.3459739 L0.968375354,3.97137908 C0.968375354,2.21713072 2.40123654,0.781437908 4.15251133,0.781437908 L25.8711048,0.781437908 C27.6223796,0.781437908 29.0556388,2.21713072 29.0556388,3.97137908 L29.0556388,52.3459739 C29.0556388,54.1002222 27.6223796,55.5355163 25.8711048,55.5355163" id="Fill-1" fill="#F2F9F4"></path>
                        <path d="M25.8715028,55.5355163 L25.8715028,54.9374771 L4.15251133,54.9374771 C3.44165297,54.9370784 2.79766147,54.6472288 2.32601133,54.1755752 C1.85515722,53.7031242 1.56540085,53.0580392 1.56540085,52.3459739 L1.56540085,3.97098039 C1.56540085,3.25891503 1.85515722,2.61383007 2.32601133,2.14137908 C2.79766147,1.66972549 3.44165297,1.37987582 4.15251133,1.37947712 L25.8715028,1.37947712 C26.5823612,1.37987582 27.2263527,1.66972549 27.6980028,2.14137908 C28.1688569,2.61383007 28.4582153,3.25891503 28.4586133,3.97098039 L28.4586133,52.3459739 C28.4582153,53.0580392 28.1688569,53.7031242 27.6980028,54.1755752 C27.2263527,54.6472288 26.5823612,54.9370784 25.8715028,54.9374771 L25.8715028,56.1335556 C27.9547238,56.1311634 29.6502762,54.4331307 29.6522663,52.3459739 L29.6522663,3.97098039 C29.6502762,1.88382353 27.9547238,0.18579085 25.8715028,0.183398693 L4.15251133,0.183398693 C2.06889235,0.18579085 0.37373796,1.88382353 0.371349858,3.97098039 L0.371349858,52.3459739 C0.37373796,54.4331307 2.06889235,56.1311634 4.15251133,56.1335556 L25.8715028,56.1335556 L25.8715028,55.5355163" id="Fill-2" fill="#353535"></path>
                        <polygon id="Fill-3" fill="#55D49C" points="3.2104051 9.70617647 26.813211 9.70617647 26.813211 46.6111765 3.2104051 46.6111765"></polygon>
                        <path d="M3.6084221,10.1048693 L26.4151941,10.1048693 L26.4151941,46.2124837 L3.6084221,46.2124837 L3.6084221,10.1048693 Z M2.8123881,47.0098693 L27.211228,47.0098693 L27.211228,9.30748366 L2.8123881,9.30748366 L2.8123881,47.0098693 Z" id="Fill-4" fill="#353535"></path>
                        <path d="M17.3169235,7.24703922 L12.7066926,7.24703922 C12.4531558,7.24703922 12.245789,7.03932026 12.245789,6.78495425 C12.245789,6.53098693 12.4531558,6.32326797 12.7066926,6.32326797 L17.3169235,6.32326797 C17.5704603,6.32326797 17.7782252,6.53098693 17.7782252,6.78495425 C17.7782252,7.03932026 17.5704603,7.24703922 17.3169235,7.24703922" id="Fill-5" fill="#353535"></path>
                        <path d="M15.6858499,3.87210458 C15.6858499,4.24488235 15.384153,4.5470915 15.0120071,4.5470915 C14.6398612,4.5470915 14.3381643,4.24488235 14.3381643,3.87210458 C14.3381643,3.4993268 14.6398612,3.19711765 15.0120071,3.19711765 C15.384153,3.19711765 15.6858499,3.4993268 15.6858499,3.87210458" id="Fill-6" fill="#353535"></path>
                        <path d="M17.1043824,51.260732 C17.1043824,52.4181373 16.1674504,53.3566601 15.0120071,53.3566601 C13.8561657,53.3566601 12.9196317,52.4181373 12.9196317,51.260732 C12.9196317,50.1033268 13.8561657,49.1648039 15.0120071,49.1648039 C16.1674504,49.1648039 17.1043824,50.1033268 17.1043824,51.260732" id="Fill-7" fill="#F7F8F8"></path>
                        <path d="M17.1043824,51.260732 L16.7063654,51.260732 C16.7059674,51.7307908 16.5173074,52.1526078 16.2100382,52.4607974 C15.9019731,52.7685882 15.4808711,52.9575686 15.0120071,52.9579673 C14.542745,52.9575686 14.1216431,52.7685882 13.8139759,52.4607974 C13.5067068,52.1526078 13.3176487,51.7307908 13.3176487,51.260732 C13.3176487,50.7906732 13.5067068,50.3688562 13.8139759,50.0606667 C14.1216431,49.7528758 14.542745,49.5638954 15.0120071,49.5634967 C15.4808711,49.5638954 15.9019731,49.7528758 16.2100382,50.0606667 C16.5173074,50.3688562 16.7059674,50.7906732 16.7063654,51.260732 L17.5023994,51.260732 C17.5020014,49.8828497 16.3875538,48.7665098 15.0120071,48.7661111 C13.6364603,48.7665098 12.5220127,49.8828497 12.5216147,51.260732 C12.5220127,52.6386144 13.6364603,53.7549542 15.0120071,53.7553529 C16.3875538,53.7549542 17.5020014,52.6386144 17.5023994,51.260732 L17.1043824,51.260732" id="Fill-8" fill="#353535"></path>
                        <polyline id="Fill-9" fill="#3BC08D" points="26.4112139 10.1216144 23.6915637 10.1216144 14.3381643 46.1817843 26.4112139 46.1817843 26.4112139 10.1216144"></polyline>
                        <path d="M12.7460963,12.3096405 L6.47573654,12.3096405 C6.31851983,12.3096405 6.16488527,12.3734314 6.05344051,12.4846667 C5.94239377,12.5963007 5.87871105,12.7501961 5.87871105,12.9076797 L5.87871105,26.8021242 C5.87871105,27.1322418 6.14578045,27.4001634 6.47573654,27.4001634 C6.80529462,27.4001634 7.07276204,27.1322418 7.07276204,26.8021242 L7.07276204,13.505719 L12.7460963,13.505719 C13.0756544,13.505719 13.3431218,13.2381961 13.3431218,12.9076797 C13.3431218,12.5775621 13.0756544,12.3096405 12.7460963,12.3096405" id="Fill-10" fill="#CCF2E1"></path>
                        <path d="M6.47573654,28.222268 C6.01443484,28.222268 5.64069688,28.5966405 5.64069688,29.0587255 C5.64069688,29.5208105 6.01443484,29.8955817 6.47573654,29.8955817 C6.93703824,29.8955817 7.3107762,29.5208105 7.3107762,29.0587255 C7.3107762,28.5966405 6.93703824,28.222268 6.47573654,28.222268" id="Fill-11" fill="#CCF2E1"></path>
                    </g>
                    <g id="icon-desktop" transform="translate(108.658640, 0.000000)">
                        <polyline id="Fill-40" fill="#F7F8F8" points="59.032289 101.102516 84.2498499 101.102516 86.3625241 117.137542 57.1747436 117.137542 59.032289 101.102516"></polyline>
                        <polyline id="Fill-41" fill="#353535" points="59.032289 101.102516 59.032289 101.899902 83.5521261 101.899902 85.4546473 116.340157 58.0682918 116.340157 59.8227507 101.194614 59.032289 101.102516 59.032289 101.899902 59.032289 101.102516 58.2414292 101.010817 56.2811955 117.934928 87.2707989 117.934928 84.9479717 100.305131 58.3230227 100.305131 58.2414292 101.010817 59.032289 101.102516"></polyline>
                        <path d="M138.634096,101.102516 L4.90317139,101.102516 C2.7140779,101.102516 0.923001416,99.3083987 0.923001416,97.1159869 L0.923001416,4.80823529 C0.923001416,2.61542484 2.7140779,0.82130719 4.90317139,0.82130719 L138.634096,0.82130719 C140.82319,0.82130719 142.614266,2.61542484 142.614266,4.80823529 L142.614266,97.1159869 C142.614266,99.3083987 140.82319,101.102516 138.634096,101.102516" id="Fill-42" fill="#F7F8F8"></path>
                        <path d="M138.634096,101.102516 L138.634096,100.305131 L4.90317139,100.305131 C4.02793201,100.305131 3.23587819,99.9483007 2.65517139,99.3678039 C2.07526062,98.7861111 1.71943343,97.9923137 1.71903541,97.1159869 L1.71903541,4.80823529 C1.71943343,3.9315098 2.07526062,3.13811111 2.65517139,2.55601961 C3.23587819,1.97552288 4.02793201,1.61869281 4.90317139,1.61869281 L138.634096,1.61869281 C139.509336,1.61869281 140.30139,1.97552288 140.882494,2.55601961 C141.462007,3.13811111 141.818232,3.9315098 141.818232,4.80823529 L141.818232,97.1159869 C141.818232,97.9923137 141.462007,98.7861111 140.882494,99.3678039 C140.30139,99.9483007 139.509336,100.305131 138.634096,100.305131 L138.634096,101.900301 C141.266581,101.897111 143.407514,99.7525425 143.4103,97.1159869 L143.4103,4.80823529 C143.407514,2.17128105 141.266581,0.0267124183 138.634096,0.0239215686 L4.90317139,0.0239215686 C2.27108499,0.0267124183 0.130151558,2.17128105 0.126967422,4.80823529 L0.126967422,97.1159869 C0.130151558,99.7525425 2.27108499,101.897111 4.90317139,101.900301 L138.634096,101.900301 L138.634096,101.102516" id="Fill-43" fill="#353535"></path>
                        <polygon id="Fill-44" fill="#55D49C" points="5.92806516 7.11586928 137.609203 7.11586928 137.609203 84.9726013 5.92806516 84.9726013"></polygon>
                        <polyline id="Fill-45" fill="#353535" points="137.609203 84.9726013 137.609203 84.3745621 6.52509065 84.3745621 6.52509065 7.7139085 137.012177 7.7139085 137.012177 84.9726013 137.609203 84.9726013 137.609203 84.3745621 137.609203 84.9726013 138.206228 84.9726013 138.206228 6.51783007 5.33103966 6.51783007 5.33103966 85.5706405 138.206228 85.5706405 138.206228 84.9726013 137.609203 84.9726013"></polyline>
                        <path d="M75.1169518,92.526634 C75.1169518,94.3789608 73.6180198,95.8804379 71.7688329,95.8804379 C69.9196459,95.8804379 68.4203159,94.3789608 68.4203159,92.526634 C68.4203159,90.6743072 69.9196459,89.1728301 71.7688329,89.1728301 C73.6180198,89.1728301 75.1169518,90.6743072 75.1169518,92.526634" id="Fill-46" fill="#F7F8F8"></path>
                        <path d="M75.1169518,92.526634 L74.3209178,92.526634 C74.3205198,93.2351111 74.0363357,93.8694314 73.5734419,94.3343072 C73.1089561,94.7983856 72.4761091,95.0830523 71.7688329,95.0830523 C71.0615567,95.0830523 70.4283116,94.7983856 69.9638258,94.3343072 C69.500932,93.8694314 69.2167479,93.2351111 69.2163499,92.526634 C69.2167479,91.8181569 69.500932,91.1842353 69.9638258,90.7189608 C70.4283116,90.255281 71.0615567,89.9706144 71.7688329,89.9702157 C72.4761091,89.9706144 73.1089561,90.255281 73.5734419,90.7189608 C74.0363357,91.1842353 74.3205198,91.8181569 74.3209178,92.526634 L75.9129858,92.526634 C75.9125878,90.2337516 74.0578286,88.3758431 71.7688329,88.3754444 C69.4794391,88.3758431 67.6250779,90.2337516 67.6242819,92.526634 C67.6250779,94.819915 69.4794391,96.6774248 71.7688329,96.6782222 C74.0578286,96.6774248 75.9125878,94.819915 75.9129858,92.526634 L75.1169518,92.526634" id="Fill-47" fill="#353535"></path>
                        <path d="M97.108983,120.522444 L46.4282847,120.522444 C45.333738,120.522444 44.4381997,119.625386 44.4381997,118.52898 C44.4381997,117.432575 45.333738,116.535516 46.4282847,116.535516 L97.108983,116.535516 C98.2035297,116.535516 99.099068,117.432575 99.099068,118.52898 C99.099068,119.625386 98.2035297,120.522444 97.108983,120.522444" id="Fill-48" fill="#F7F8F8"></path>
                        <path d="M97.108983,120.522444 L97.108983,119.725059 L46.4282847,119.725059 C46.1003187,119.72466 45.8057861,119.592294 45.5856827,119.373013 C45.3667734,119.152536 45.2342337,118.857105 45.2342337,118.52898 C45.2342337,118.200458 45.3667734,117.905425 45.5856827,117.684948 C45.8057861,117.465667 46.1003187,117.332902 46.4282847,117.332902 L97.108983,117.332902 C97.436949,117.332902 97.7314816,117.465667 97.951585,117.684948 C98.1704943,117.905425 98.303034,118.200458 98.303034,118.52898 C98.303034,118.857105 98.1704943,119.152536 97.951585,119.373013 C97.7314816,119.592294 97.436949,119.72466 97.108983,119.725059 L97.108983,121.31983 C98.6469207,121.316641 99.8923159,120.069131 99.895102,118.52898 C99.8923159,116.988431 98.6469207,115.740922 97.108983,115.738131 L46.4282847,115.738131 C44.890745,115.740922 43.6453499,116.988431 43.6421657,118.52898 C43.6453499,120.069131 44.890745,121.316641 46.4282847,121.31983 L97.108983,121.31983 L97.108983,120.522444" id="Fill-49" fill="#353535"></path>
                        <polyline id="Fill-50" fill="#3BC08D" points="136.813567 7.7139085 103.884028 7.7139085 76.5518031 84.2569477 136.813567 84.2569477 136.813567 7.7139085"></polyline>
                        <polyline id="Fill-51" fill="#2B715A" points="136.813567 7.6473268 103.907511 7.6473268 103.884028 7.7308268 136.813567 7.7308268 136.813567 7.6473268"></polyline>
                        <path d="M29.0190212,13.8378301 L14.2657252,13.8378301 C13.5238215,13.8378301 12.9224178,14.4402549 12.9224178,15.1834183 L12.9224178,47.8742353 C12.9224178,48.6173987 13.5238215,49.2198235 14.2657252,49.2198235 C15.0076289,49.2198235 15.6086346,48.6173987 15.6086346,47.8742353 L15.6086346,16.5286078 L29.0190212,16.5286078 C29.7609249,16.5286078 30.3619306,15.9265817 30.3619306,15.1834183 C30.3619306,14.4402549 29.7609249,13.8378301 29.0190212,13.8378301" id="Fill-52" fill="#CCF2E1"></path>
                        <path d="M14.2657252,51.2156797 C13.1803329,51.2156797 12.3007153,52.0971895 12.3007153,53.1844248 C12.3007153,54.2712614 13.1803329,55.1523725 14.2657252,55.1523725 C15.3507195,55.1523725 16.2307351,54.2712614 16.2307351,53.1844248 C16.2307351,52.0971895 15.3507195,51.2156797 14.2657252,51.2156797" id="Fill-53" fill="#CCF2E1"></path>
                    </g>
                    <g id="icon-tablet" transform="translate(222.491501, 40.666667)">
                        <path d="M53.7143839,80.4833203 L4.85819547,80.4833203 C2.66910198,80.4833203 0.878025496,78.6892026 0.878025496,76.4963922 L0.878025496,4.77275163 C0.878025496,2.57994118 2.66910198,0.785823529 4.85819547,0.785823529 L53.7143839,0.785823529 C55.9034773,0.785823529 57.6945538,2.57994118 57.6945538,4.77275163 L57.6945538,76.4963922 C57.6945538,78.6892026 55.9034773,80.4833203 53.7143839,80.4833203" id="Fill-54" fill="#F7F8F8"></path>
                        <path d="M53.7143839,80.4833203 L53.7143839,79.885281 L4.85819547,79.885281 C3.92842776,79.8848824 3.08542776,79.5053268 2.46929745,78.8893464 C1.85436119,78.2721699 1.47544901,77.4277386 1.47505099,76.4963922 L1.47505099,4.77275163 C1.47544901,3.84140523 1.85436119,2.99697386 2.46929745,2.37979739 C3.08542776,1.76381699 3.92842776,1.38386275 4.85819547,1.38386275 L53.7143839,1.38386275 C54.6441516,1.38386275 55.4871516,1.76381699 56.1032819,2.37979739 C56.7182181,2.99697386 57.0971303,3.84140523 57.0975283,4.77275163 L57.0975283,76.4963922 C57.0971303,77.4277386 56.7182181,78.2721699 56.1032819,78.8893464 C55.4871516,79.5053268 54.6441516,79.8848824 53.7143839,79.885281 L53.7143839,81.0813595 C56.2358215,81.0789673 58.2891912,79.0221111 58.2915793,76.4963922 L58.2915793,4.77275163 C58.2891912,2.24703268 56.2358215,0.190176471 53.7143839,0.187784314 L4.85819547,0.187784314 C2.33675779,0.190176471 0.283388102,2.24703268 0.281,4.77275163 L0.281,76.4963922 C0.283388102,79.0221111 2.33675779,81.0789673 4.85819547,81.0813595 L53.7143839,81.0813595 L53.7143839,80.4833203" id="Fill-55" fill="#353535"></path>
                        <polygon id="Fill-56" fill="#55D49C" points="3.97459773 9.04913072 54.5983796 9.04913072 54.5983796 70.0200261 3.97459773 70.0200261"></polygon>
                        <polyline id="Fill-57" fill="#353535" points="54.5983796 70.0204248 54.5983796 69.621732 4.37221671 69.621732 4.37221671 9.44822222 54.2003626 9.44822222 54.2003626 70.0204248 54.5983796 70.0204248 54.5983796 69.621732 54.5983796 70.0204248 54.9959986 70.0204248 54.9959986 8.65043791 3.57618272 8.65043791 3.57618272 70.4191176 54.9959986 70.4191176 54.9959986 70.0204248 54.5983796 70.0204248"></polyline>
                        <path d="M31.7498159,74.883281 C31.7498159,76.2460131 30.6469108,77.3511895 29.2864887,77.3511895 C27.9256686,77.3511895 26.8227635,76.2460131 26.8227635,74.883281 C26.8227635,73.520549 27.9256686,72.4157712 29.2864887,72.4157712 C30.6469108,72.4157712 31.7498159,73.520549 31.7498159,74.883281" id="Fill-58" fill="#F7F8F8"></path>
                        <path d="M31.7498159,74.883281 L31.1527904,74.883281 C31.1523924,75.4015817 30.9446275,75.8652614 30.605915,76.2053464 C30.2664065,76.544634 29.8035127,76.7527516 29.2864887,76.7531503 C28.7690666,76.7527516 28.3061728,76.544634 27.9666643,76.2053464 C27.6279518,75.8652614 27.420187,75.4015817 27.419789,74.883281 C27.420187,74.3653791 27.6279518,73.9016993 27.9666643,73.5612157 C28.3061728,73.2219281 28.7690666,73.0142092 29.2864887,73.0138105 C29.8035127,73.0142092 30.2664065,73.2219281 30.605915,73.5612157 C30.9446275,73.9016993 31.1523924,74.3653791 31.1527904,74.883281 L32.3468414,74.883281 C32.3464433,73.1900327 30.9768669,71.8181307 29.2864887,71.817732 C27.5957125,71.8181307 26.226136,73.1900327 26.225738,74.883281 C26.226136,76.5765294 27.5957125,77.9488301 29.2864887,77.9492288 C30.9768669,77.9488301 32.3464433,76.5765294 32.3468414,74.883281 L31.7498159,74.883281" id="Fill-59" fill="#353535"></path>
                        <polyline id="Fill-60" fill="#3BC08D" points="54.2003626 9.44822222 44.6594972 9.44822222 24.1464972 69.5053137 54.2003626 69.5053137 54.2003626 9.44822222"></polyline>
                        <polyline id="Fill-61" fill="#2B715A" points="54.2385722 9.04913072 44.795619 9.04913072 44.6594972 9.44822222 54.2003626 9.44822222 54.2003626 69.5053137 54.2385722 69.5053137 54.2385722 9.04913072"></polyline>
                        <path d="M29.9599334,5.08732026 C29.9599334,5.45969935 29.6582365,5.7619085 29.2864887,5.7619085 C28.9143428,5.7619085 28.6122479,5.45969935 28.6122479,5.08732026 C28.6122479,4.71414379 28.9143428,4.41233333 29.2864887,4.41233333 C29.6582365,4.41233333 29.9599334,4.71414379 29.9599334,5.08732026" id="Fill-62" fill="#353535"></path>
                        <path d="M18.5479901,13.6879216 L9.06762323,13.6879216 C8.59119688,13.6879216 8.20472238,14.0750523 8.20472238,14.5522876 L8.20472238,35.5590131 C8.20472238,36.0366471 8.59119688,36.4233791 9.06762323,36.4233791 C9.54444759,36.4233791 9.9309221,36.0366471 9.9309221,35.5590131 L9.9309221,15.4170523 L18.5479901,15.4170523 C19.0244164,15.4170523 19.4108909,15.0299216 19.4108909,14.5522876 C19.4108909,14.0750523 19.0244164,13.6879216 18.5479901,13.6879216" id="Fill-63" fill="#CCF2E1"></path>
                        <path d="M9.06762323,37.7063725 C8.37029745,37.7063725 7.80511331,38.2725163 7.80511331,38.9710261 C7.80511331,39.6695359 8.37029745,40.2356797 9.06762323,40.2356797 C9.76494901,40.2356797 10.3305312,39.6695359 10.3305312,38.9710261 C10.3305312,38.2725163 9.76494901,37.7063725 9.06762323,37.7063725" id="Fill-64" fill="#CCF2E1"></path>
                    </g>
                    <g id="icon-relogio" transform="translate(102.688385, 94.490196)">
                        <path d="M13.4788456,22.468732 L2.24441785,22.468732 C1.33853116,22.468732 0.597025496,21.7259673 0.597025496,20.8185425 L0.597025496,6.41735948 C0.597025496,5.50993464 1.33853116,4.76716993 2.24441785,4.76716993 L13.4788456,4.76716993 C14.3847323,4.76716993 15.126238,5.50993464 15.126238,6.41735948 L15.126238,20.8185425 C15.126238,21.7259673 14.3847323,22.468732 13.4788456,22.468732" id="Fill-24" fill="#F2F9F4"></path>
                        <path d="M13.4788456,22.468732 L13.4788456,22.0700392 L2.24441785,22.0700392 C1.9013272,22.0696405 1.59087394,21.930098 1.36241218,21.7020458 C1.13474646,21.4731961 0.99544051,21.1622157 0.995042493,20.8185425 L0.995042493,6.41735948 C0.99544051,6.07328758 1.13474646,5.76270588 1.36241218,5.53385621 C1.59087394,5.30580392 1.9013272,5.16586275 2.24441785,5.16586275 L13.4788456,5.16586275 C13.8219363,5.16586275 14.1323895,5.30580392 14.3608513,5.53385621 C14.588517,5.76270588 14.7278229,6.07328758 14.728221,6.41735948 L14.728221,20.8185425 C14.7278229,21.1622157 14.588517,21.4731961 14.3608513,21.7020458 C14.1323895,21.930098 13.8219363,22.0696405 13.4788456,22.0700392 L13.4788456,22.8674248 C14.6064278,22.8658301 15.5226629,21.9480392 15.524255,20.8185425 L15.524255,6.41735948 C15.5226629,5.28786275 14.6064278,4.3700719 13.4788456,4.36847712 L2.24441785,4.36847712 C1.11683569,4.3700719 0.200600567,5.28786275 0.199008499,6.41735948 L0.199008499,20.8185425 C0.200600567,21.9480392 1.11683569,22.8658301 2.24441785,22.8674248 L13.4788456,22.8674248 L13.4788456,22.468732" id="Fill-25" fill="#353535"></path>
                        <polygon id="Fill-26" fill="#55D49C" points="1.93714873 7.67284314 13.7821346 7.67284314 13.7821346 19.5630588 1.93714873 19.5630588"></polygon>
                        <polyline id="Fill-27" fill="#353535" points="13.7825326 19.5630588 13.7825326 19.3637124 2.13615722 19.3637124 2.13615722 7.87218954 13.5835241 7.87218954 13.5835241 19.5630588 13.7825326 19.5630588 13.7825326 19.3637124 13.7825326 19.5630588 13.9815411 19.5630588 13.9815411 7.47349673 1.73814023 7.47349673 1.73814023 19.7624052 13.9815411 19.7624052 13.9815411 19.5630588 13.7825326 19.5630588"></polyline>
                        <polyline id="Fill-28" fill="#F2F9F4" points="2.55765722 4.76716993 2.80283569 3.56949673 12.7978385 3.56949673 13.1656062 4.76716993 2.55765722 4.76716993"></polyline>
                        <polyline id="Fill-29" fill="#353535" points="2.55765722 4.76716993 2.94771388 4.84730719 3.12761756 3.96818954 12.503704 3.96818954 12.6266912 4.36847712 2.55765722 4.36847712 2.55765722 4.76716993 2.94771388 4.84730719 2.55765722 4.76716993 2.55765722 5.16586275 13.7045212 5.16586275 13.0915751 3.17080392 2.47845184 3.17080392 2.06968839 5.16586275 2.55765722 5.16586275 2.55765722 4.76716993"></polyline>
                        <path d="M3.35488527,3.56949673 L3.63986544,1.46918301 C3.72265297,0.860379085 4.24166714,0.406267974 4.85501133,0.406267974 L10.8272564,0.406267974 C11.4318442,0.406267974 11.9464802,0.847620915 12.0392181,1.44605882 L12.3683782,3.56949673 L3.35488527,3.56949673" id="Fill-30" fill="#F2F9F4"></path>
                        <path d="M3.35488527,3.56949673 L3.74932011,3.62332026 L4.03430028,1.52300654 C4.09002266,1.11195425 4.44067564,0.804960784 4.85501133,0.804960784 L10.8272564,0.804960784 C11.2356218,0.804960784 11.5834887,1.10318301 11.6459773,1.50745752 L11.9038924,3.17080392 L3.35488527,3.17080392 L3.35488527,3.56949673 L3.74932011,3.62332026 L3.35488527,3.56949673 L3.35488527,3.96818954 L12.833262,3.96818954 L12.4324589,1.38505882 C12.3094717,0.592058824 11.6284646,0.0075751634 10.8272564,0.0075751634 L4.85501133,0.0075751634 C4.04226062,0.0075751634 3.35488527,0.608803922 3.24543059,1.41535948 L2.89915581,3.96818954 L3.35488527,3.96818954 L3.35488527,3.56949673" id="Fill-31" fill="#353535"></path>
                        <polyline id="Fill-32" fill="#F2F9F4" points="13.1656062 22.468732 12.9204278 23.6664052 2.92582295 23.6664052 2.55765722 22.468732 13.1656062 22.468732"></polyline>
                        <polyline id="Fill-33" fill="#353535" points="13.1656062 22.468732 12.7755496 22.3885948 12.5956459 23.2677124 3.21955949 23.2677124 3.09657224 22.8674248 13.1656062 22.8674248 13.1656062 22.468732 12.7755496 22.3885948 13.1656062 22.468732 13.1656062 22.0700392 2.01874221 22.0700392 2.63168839 24.065098 13.2452096 24.065098 13.6535751 22.0700392 13.1656062 22.0700392 13.1656062 22.468732"></polyline>
                        <path d="M12.3683782,23.6664052 L12.083398,25.766719 C12.0010085,26.3755229 11.4815963,26.829634 10.8682521,26.829634 L4.89600708,26.829634 C4.29141926,26.829634 3.7771813,26.388281 3.68404533,25.7898431 L3.35488527,23.6664052 L12.3683782,23.6664052" id="Fill-34" fill="#F2F9F4"></path>
                        <path d="M12.3683782,23.6664052 L11.9739433,23.6125817 L11.6889632,25.7128954 C11.6336388,26.1239477 11.2825878,26.4309412 10.8682521,26.4309412 L4.89600708,26.4309412 C4.48764164,26.4309412 4.1401728,26.132719 4.07728612,25.7284444 L3.8193711,24.065098 L12.3683782,24.065098 L12.3683782,23.6664052 L11.9739433,23.6125817 L12.3683782,23.6664052 L12.3683782,23.2677124 L2.89039943,23.2677124 L3.29080453,25.8508431 C3.41379178,26.6434444 4.09519688,27.2279281 4.89600708,27.2283268 L10.8682521,27.2283268 C11.6810028,27.2279281 12.3683782,26.6266993 12.4778329,25.8201438 L12.8241076,23.2677124 L12.3683782,23.2677124 L12.3683782,23.6664052" id="Fill-35" fill="#353535"></path>
                        <polyline id="Fill-36" fill="#3BC08D" points="13.5835241 7.87218954 11.1564164 7.87218954 7.05405524 19.3613203 13.5835241 19.3613203 13.5835241 7.87218954"></polyline>
                        <path d="M5.63353258,8.94028758 L3.29995892,8.94028758 C3.18254391,8.94028758 3.08741785,9.03557516 3.08741785,9.15318954 L3.08741785,14.3242353 C3.08741785,14.4418497 3.18254391,14.5371373 3.29995892,14.5371373 C3.41697592,14.5371373 3.51210198,14.4418497 3.51210198,14.3242353 L3.51210198,9.3660915 L5.63353258,9.3660915 C5.75094759,9.3660915 5.84567564,9.27080392 5.84567564,9.15318954 C5.84567564,9.03557516 5.75094759,8.94028758 5.63353258,8.94028758" id="Fill-38" fill="#CCF2E1"></path>
                        <path d="M3.29995892,14.852902 C3.12801558,14.852902 2.98870963,14.9924444 2.98870963,15.164281 C2.98870963,15.3361176 3.12801558,15.4756601 3.29995892,15.4756601 C3.47150425,15.4756601 3.6108102,15.3361176 3.6108102,15.164281 C3.6108102,14.9924444 3.47150425,14.852902 3.29995892,14.852902" id="Fill-39" fill="#CCF2E1"></path>
                        <polyline id="Fill-37" fill="#2B715A" points="13.5875042 7.84747059 11.1651728 7.84747059 11.1564164 7.87218954 13.5835241 7.87218954 13.5835241 19.3613203 13.5875042 19.3613203 13.5875042 7.84747059"></polyline>
                    </g>
                </g>
            </g>
        </g>
    </g>
</svg>