<?xml version="1.0" encoding="UTF-8" standalone="no"?>
<svg width="22px" height="38px" viewBox="0 0 22 38" version="1.1" xmlns="http://www.w3.org/2000/svg" xmlns:xlink="http://www.w3.org/1999/xlink">
    <!-- Generator: sketchtool 3.8.3 (29802) - http://www.bohemiancoding.com/sketch -->
    <title>D549D1AB-B0EF-4DCF-BF1C-AE693C432DC4</title>
    <desc>Created with sketchtool.</desc>
    <defs></defs>
    <g id="Interface" stroke="none" stroke-width="1" fill="none" fill-rule="evenodd">
        <g id="Home" transform="translate(-67.000000, -52.000000)" fill="#FFFFFF">
            <g id="logo" transform="translate(67.000000, 52.000000)">
                <path d="M20.2615727,37.4307637 L12.5714953,37.4307637 C11.7781598,37.4307637 10.9964979,36.8073588 10.9278574,36.0351765 C10.8475432,35.1269951 11.5778415,34.3657657 12.4902473,34.3657657 L17.7153348,34.3657657 C18.2532527,34.3657657 18.6935795,33.9354064 18.6935795,33.4101216 L18.6935795,17.0395819 L14.3785631,10.8840289 C14.2263398,10.6667956 14.1016661,10.2734025 14.1016661,10.0096191 L14.1016661,3.44241814 L7.79327178,3.44241814 L7.79327178,10.0146392 C7.79327178,10.3236034 7.69801549,10.6257221 7.51870954,10.8808343 L3.20089144,17.0395819 L3.20089144,35.8188559 C3.20089144,36.5942328 2.56304786,37.3577441 1.772981,37.4248309 C0.843765255,37.5037833 0.0649050196,36.7900167 0.0649050196,35.8982647 L0.0649050196,16.564498 C0.0649050196,16.2555338 0.160161307,15.9534152 0.339467261,15.6983029 L4.40466943,9.90054608 C4.54381832,9.70248039 4.65728537,9.3433152 4.65728537,9.10280686 L4.65728537,1.92452304 C4.65728537,1.07338824 5.36983975,0.376963725 6.24068768,0.376963725 L15.6547172,0.376963725 C16.5255651,0.376963725 17.2381195,1.07338824 17.2381195,1.92452304 L17.2381195,9.10280686 C17.2381195,9.3433152 17.3520535,9.70248039 17.4912024,9.90054608 L21.552669,15.694652 C21.7053592,15.9123417 21.8300329,16.3061912 21.8300329,16.5699745 L21.8300329,35.8982647 C21.829566,36.7448358 21.1272843,37.4307637 20.2615727,37.4307637" id="Fill-1"></path>
            </g>
        </g>
    </g>
</svg>